<?xml version="1.0" encoding="UTF-8"?>
<svg width="126px" height="57px" viewBox="0 0 126 57" version="1.1" xmlns="http://www.w3.org/2000/svg" xmlns:xlink="http://www.w3.org/1999/xlink">
    <!-- Generator: Sketch 51.1 (57501) - http://www.bohemiancoding.com/sketch -->
    <title>AIS Logo</title>
    <desc>Created with Sketch.</desc>
    <defs>
        <polygon id="path-1" points="41.7216256 57 0.529160465 57 0.529160465 0.756240676 41.7216256 0.756240676"></polygon>
    </defs>
    <g id="Page-1" stroke="none" stroke-width="1" fill="none" fill-rule="evenodd">
        <g id="AIS---Product-Detail---Natick-1" transform="translate(-75.000000, -46.000000)">
            <g id="AIS-Logo" transform="translate(75.000000, 46.000000)">
                <polygon id="Fill-1" fill="#2B2E75" points="63.3837209 55.3943662 75.4186047 55.3943662 75.4186047 0.802816901 63.3837209 0.802816901"></polygon>
                <g id="Group-4" transform="translate(83.441860, 0.000000)">
                    <mask id="mask-2" fill="white">
                        <use xlink:href="#path-1"></use>
                    </mask>
                    <g id="Clip-3"></g>
                    <path d="M24.3355868,23.4866204 C14.8603,21.0658384 12.5100209,19.8935973 12.5100209,16.3005742 L12.5100209,16.1433505 C12.5100209,13.4867331 14.9367884,11.3780863 19.5585403,11.3780863 C24.1779744,11.3780863 28.9550209,13.4104334 33.8131915,16.7699331 L34.2976178,16.0647387 L38.3955403,6.45791054 C33.1618814,2.79321194 26.9176488,0.756240676 19.7161527,0.756240676 C8.51640078,0.756240676 0.529160465,7.31801645 0.529160465,17.2369798 L0.529160465,17.3942035 C0.529160465,28.2518846 7.65416822,31.2992491 18.6986256,34.1107781 C27.8586876,36.4552604 29.7384473,38.0159365 29.7384473,41.063301 L29.7384473,41.2205246 C29.7384473,44.4228007 26.7623543,46.3742238 21.8300132,46.3742238 C15.6298194,46.3742238 10.5050984,43.8493967 5.61679612,39.8586903 L1.54436977,50.7672379 C7.53132326,54.9313528 14.589114,57.0006936 21.5959124,57.0006936 C33.4191605,57.0006936 41.7216256,50.9059646 41.7216256,40.0482835 L41.7216256,39.8910598 C41.7216256,30.3605314 35.4565326,26.3767612 24.3355868,23.4866204" id="Fill-2" fill="#2B2E75" mask="url(#mask-2)"></path>
                </g>
                <polygon id="Fill-5" fill="#2B2E75" points="34.1736492 0.802816901 23.5937927 0.802816901 23.29729 0.802816901 0 56.1971831 0.147102068 56.1971831 12.1933824 56.1971831 12.6484794 56.1971831 28.8848702 14.2450032 36.3342108 33.1733691 23.032966 33.1733691 22.8123129 43.8620003 40.1496707 43.8620003 45.1189625 56.1971831 45.576358 56.1971831 57.6226383 56.1971831 57.7674419 56.1971831 34.4701518 0.802816901"></polygon>
            </g>
        </g>
    </g>
</svg>